<svg xmlns="http://www.w3.org/2000/svg" viewBox="0 0 720 440" fill="none" color="#111111"><!-- Recreated from raster previews; not an original source layer. --><defs><linearGradient id="pad"><stop stop-color="#B1D1B1"/><stop offset="1" stop-color="#7EAC8A"/></linearGradient><clipPath id="p"><rect width="720" height="440" rx="24"/></clipPath></defs><g clip-path="url(#p)"><rect width="720" height="440" rx="24" fill="#EDF3E9"/><path d="M0 190Q180 180 300 90T720 150V440H0Z" fill="#E3EDDE"/><path d="M0 320Q170 390 390 220T720 330V440H0Z" fill="#DDEAD8" fill-opacity=".65"/></g><path d="M445 203v-25a97 97 0 0 1 194 0v25" stroke="#8DB996" stroke-width="21"/><path d="M444 193v39m196-39v39" stroke="#78A582" stroke-width="9"/><ellipse cx="446" cy="273" rx="30" ry="65" fill="url(#pad)"/><ellipse cx="463" cy="273" rx="22" ry="65" fill="#8CB795"/><ellipse cx="466" cy="273" rx="8" ry="40" fill="#6E9D7F"/><ellipse cx="630" cy="273" rx="33" ry="65" fill="#79A884"/><ellipse cx="650" cy="273" rx="25" ry="65" fill="url(#pad)"/><g stroke="#F7FAF2" stroke-width="6" stroke-linecap="round"><path d="M386 215q-55 60 0 120M373 197q-74 77 0 154M695 215q55 60 0 120M707 197q74 77 0 154"/></g></svg>