<svg xmlns="http://www.w3.org/2000/svg" width="165" height="240" viewBox="0 0 165 240" fill="none"><title>Foliage Right</title><g stroke="#427c63" stroke-width="1.7" stroke-linecap="round"><path d="M140 231Q140 121 108 8M135 169Q103 179 78 197M137 163Q99 149 79 114M134 111L110 69M109 202L35 174M76 230L19 154M119 33L125 13M112 61L94 34"/><path d="M136 115Q104 95 88 68Q122 76 136 115Z" fill="#6b957e"/><path d="M137 145Q145 105 159 90Q169 124 137 145Z" fill="#6f9c80"/><path d="M137 162Q87 155 64 116Q110 116 137 162Z" fill="#75a18a"/><path d="M139 176Q142 144 157 136Q164 159 139 176Z" fill="#638e77"/><path d="M120 177Q83 168 62 194Q99 202 120 177Z" fill="#598d70"/><path d="M138 202Q117 185 95 207Q124 212 138 202Z" fill="#6c9b80"/><path d="M74 227Q52 202 43 172Q72 179 74 227Z" fill="#7ca78b"/><path d="M72 230Q34 206 18 215Q37 233 72 230Z" fill="#64987d"/><path d="M90 236Q82 211 87 198Q103 213 90 236Z" fill="#68977e"/></g><g fill="#e8ae43"><ellipse cx="108" cy="8" rx="3.8" ry="5.5"/><ellipse cx="125" cy="13" rx="3.2" ry="4.7"/><ellipse cx="94" cy="34" rx="3.7" ry="5"/><ellipse cx="19" cy="154" rx="3.7" ry="5.3"/><ellipse cx="35" cy="174" rx="3.5" ry="4.6"/><ellipse cx="42" cy="158" rx="3.3" ry="5"/></g></svg>